# xmcd CD database file
#
# Track frame offsets:
#	150
#	35950
#	70633
#	93186
#	115104
#	136044
#	145958
#	171105
#	200567
#
# Disc length: 2878 seconds
#
# Revision: 0
# Processed by: cddbd v1.5.2PL0 Copyright (c) Steve Scherf et al.
# Submitted via: CDex 1.82
#
DISCID=7b0b3c09
DTITLE=Avital meets Avital - Avital meets Avital
DYEAR=2017
DGENRE=Jazz
TTITLE0=Zamzama
TTITLE1=Lonely Girl
TTITLE2=Ana Maghrebi
TTITLE3=Avi's Song
TTITLE4=Ballad For Eli
TTITLE5=Prelude
TTITLE6=Maroc
TTITLE7=Hijazain
TTITLE8=The Source And The Sea (Balada Al Maayan Ve'yam)
EXTD=YEAR: 2017
EXTT0=
EXTT1=
EXTT2=
EXTT3=
EXTT4=
EXTT5=
EXTT6=
EXTT7=
EXTT8=
PLAYORDER=
